<?xml version="1.0" encoding="UTF-8"?>
<svg version="1.1" xmlns="http://www.w3.org/2000/svg" width="384" height="332">
<path d="M0 0 C126.72 0 253.44 0 384 0 C384 109.56 384 219.12 384 332 C257.28 332 130.56 332 0 332 C0 222.44 0 112.88 0 0 Z " fill="#FBFBFB" transform="translate(0,0)"/>
<path d="M0 0 C1.68798958 -0.00639748 1.68798958 -0.00639748 3.41007996 -0.01292419 C5.2637468 -0.01224442 5.2637468 -0.01224442 7.15486145 -0.0115509 C8.45608444 -0.01490952 9.75730743 -0.01826813 11.09796143 -0.02172852 C14.67312892 -0.03057476 18.24827247 -0.03290717 21.82344985 -0.0335443 C24.0630307 -0.03425558 26.30260549 -0.03639161 28.54218483 -0.03904152 C36.37369293 -0.04830391 44.205184 -0.05237615 52.03669739 -0.05158997 C59.30337321 -0.0509921 66.56997409 -0.06148409 73.836631 -0.07733363 C80.09506741 -0.09049074 86.35347962 -0.09577031 92.61192971 -0.09513456 C96.34037518 -0.09488153 100.06875436 -0.09762196 103.7971859 -0.10831261 C139.71122467 -0.20412652 139.71122467 -0.20412652 154.58381653 4.13371277 C154.58381653 4.79371277 154.58381653 5.45371277 154.58381653 6.13371277 C155.82518372 6.29420105 155.82518372 6.29420105 157.09162903 6.45793152 C161.08662016 7.23101146 164.67144963 8.48870602 168.45881653 9.94621277 C169.51999695 10.34997131 169.51999695 10.34997131 170.60261536 10.7618866 C176.38217348 12.99176337 181.84266206 15.46227712 187.14631653 18.69621277 C189.21523999 19.91634712 191.11149274 20.76371583 193.33381653 21.63371277 C194.40631653 22.12871277 195.47881653 22.62371277 196.58381653 23.13371277 C196.91381653 24.12371277 197.24381653 25.11371277 197.58381653 26.13371277 C198.89653432 26.84010799 200.23499244 27.49897202 201.58381653 28.13371277 C219.96489103 41.75802358 219.96489103 41.75802358 223.54866028 49.11418152 C224.56413747 51.35031632 224.56413747 51.35031632 226.89241028 53.43840027 C229.93758711 56.4879968 232.26815197 59.68163502 234.64631653 63.25871277 C235.08532288 63.91669861 235.52432922 64.57468445 235.97663879 65.25260925 C239.00405277 69.92453038 241.18008153 74.50981609 242.84944153 79.84074402 C243.58505704 82.35882389 243.58505704 82.35882389 245.27131653 85.38371277 C246.82087988 88.63041693 247.22767602 91.57230771 247.58381653 95.13371277 C248.24381653 95.13371277 248.90381653 95.13371277 249.58381653 95.13371277 C249.69338684 95.77695496 249.80295715 96.42019714 249.91584778 97.08293152 C250.80000619 102.12191563 251.81831506 107.04961128 253.12287903 111.99699402 C254.7883172 119.17878068 255.14227614 126.18060701 255.13972473 133.51164246 C255.14640074 135.66082199 255.20142828 137.80563518 255.25764465 139.95402527 C255.37918413 149.81029769 255.37918413 149.81029769 253.34675598 153.19206238 C250.56971686 155.65282396 248.29805489 156.17453586 244.64631653 156.69621277 C236.77344895 156.10091087 231.75951684 150.6550306 226.25178528 145.55558777 C223.62018264 143.16672447 220.91507492 140.92385861 218.14631653 138.69621277 C213.36953144 134.8331306 208.84434771 130.75459842 204.32600403 126.59465027 C201.6836577 124.22331382 198.97687486 121.98118279 196.20881653 119.75871277 C191.98196492 116.35190655 187.9800522 112.78003264 184.02131653 109.07121277 C179.50137882 104.83762395 174.86977638 100.878478 169.98616028 97.06340027 C165.68564919 93.609006 161.66142435 89.8455551 157.58381653 86.13371277 C154.93633723 83.77799649 152.26329952 81.45292914 149.58381653 79.13371277 C148.80965393 78.46203064 148.80965393 78.46203064 148.01985168 77.77677917 C144.43493474 74.66971617 140.82937687 71.58892795 137.2068634 68.52580261 C135.80477616 67.32323019 134.43335324 66.0850762 133.06819153 64.84074402 C127.52334968 60.00396651 122.90074811 59.03797722 115.58381653 59.13371277 C115.25381653 60.12371277 114.92381653 61.11371277 114.58381653 62.13371277 C112.52131653 62.82121277 112.52131653 62.82121277 110.58381653 63.13371277 C109.68213073 66.21805069 109.44913604 68.98713098 109.45881653 72.19621277 C109.4562384 73.05343933 109.45366028 73.91066589 109.45100403 74.79386902 C109.60867045 77.57158042 109.96775647 79.49634804 111.93928528 81.53605652 C112.54385559 82.04265808 113.1484259 82.54925964 113.77131653 83.07121277 C114.49448059 83.68480652 115.21764465 84.29840027 115.96272278 84.93058777 C116.82768372 85.65761902 117.69264465 86.38465027 118.58381653 87.13371277 C120.20547896 88.52088666 121.82366605 89.91205741 123.44197083 91.30314636 C126.48529398 93.91795684 129.53505017 96.52525313 132.58381653 99.13371277 C146.42441559 110.9754349 146.42441559 110.9754349 152.34162903 116.16886902 C163.70693044 126.14937627 163.70693044 126.14937627 175.33381653 135.82121277 C179.99866071 139.59587219 184.41351703 143.59208113 188.82209778 147.66105652 C191.56376288 150.11575809 194.38853808 152.40987124 197.27131653 154.69621277 C208.57278632 163.90481779 216.27197824 173.98997413 217.95881653 188.75871277 C218.22413453 191.55129197 218.41336224 194.33221406 218.58381653 197.13371277 C218.67276184 198.56263855 218.67276184 198.56263855 218.76350403 200.02043152 C219.03586038 209.41672565 217.23584809 218.50163818 213.58381653 227.13371277 C212.92381653 227.13371277 212.26381653 227.13371277 211.58381653 227.13371277 C211.35694153 228.20621277 211.13006653 229.27871277 210.89631653 230.38371277 C209.38960129 234.68861344 208.18934267 235.51151194 204.58381653 238.13371277 C202.9988558 239.89389529 201.50180807 241.70549621 200.01350403 243.54777527 C198.58381653 245.13371277 198.58381653 245.13371277 195.58381653 247.13371277 C195.25381653 248.12371277 194.92381653 249.11371277 194.58381653 250.13371277 C192.51741028 250.86418152 192.51741028 250.86418152 190.02131653 251.32121277 C189.19502747 251.47976746 188.3687384 251.63832214 187.51741028 251.80168152 C186.87932434 251.91125183 186.2412384 252.02082214 185.58381653 252.13371277 C185.58381653 252.79371277 185.58381653 253.45371277 185.58381653 254.13371277 C178.64850221 259.33519851 170.44691824 259.45552764 162.14631653 259.38371277 C161.25621887 259.39144714 160.36612122 259.39918152 159.4490509 259.40715027 C139.3450519 259.34840958 125.18073896 248.92505853 111.16194153 235.50090027 C107.58062353 232.08751552 103.80326282 229.01048687 99.89631653 225.97746277 C97.43141192 224.01220098 95.10245744 221.94314873 92.77131653 219.82121277 C88.78302138 216.19376337 84.74329796 212.63734221 80.64631653 209.13371277 C80.09032776 208.65248962 79.53433899 208.17126648 78.96150208 207.67546082 C76.504394 205.58599607 74.67583715 204.16438631 71.58381653 203.13371277 C70.39330801 201.99798872 69.20944213 200.85402462 68.06965637 199.66740417 C60.24013072 191.58572818 51.83612399 183.89302054 42.93537903 177.01652527 C40.23007074 174.85048109 37.69521258 172.54406913 35.14631653 170.19621277 C29.79512878 165.27402319 24.24305656 160.69969052 18.58381653 156.13371277 C13.13881653 151.67871277 13.13881653 151.67871277 7.58381653 147.13371277 C7.58381653 181.12371277 7.58381653 215.11371277 7.58381653 250.13371277 C38.62338411 249.97539223 38.62338411 249.97539223 69.66267395 249.77336121 C75.67036438 249.7552948 75.67036438 249.7552948 78.48416138 249.75193787 C80.44647856 249.74580149 82.40878079 249.73174534 84.3710022 249.71141052 C87.34609621 249.68212436 90.32026986 249.67808884 93.29548645 249.67961121 C94.16749034 249.66521877 95.03949423 249.65082634 95.93792248 249.63599777 C100.02330477 249.66397637 102.06673699 249.80760514 105.60183716 252.03709412 C108.67536225 255.28839437 108.93009639 257.61962452 108.86506653 262.09855652 C108.41390953 265.36317865 106.96503789 266.94556341 104.58381653 269.13371277 C99.78888597 271.78436761 94.83284038 271.43638626 89.50447083 271.44010925 C88.49246613 271.44843277 87.48046143 271.45675629 86.43778992 271.46533203 C83.09449915 271.48941397 79.75140357 271.49820209 76.40803528 271.50480652 C74.08021995 271.51377428 71.75240521 271.52289616 69.42459106 271.53216553 C64.54479065 271.54865322 59.66505882 271.55635525 54.78523254 271.55924988 C48.54078069 271.56463303 42.2969759 271.60231214 36.05270672 271.64799404 C31.24419821 271.67777658 26.43584529 271.68497371 21.62725258 271.68597603 C19.32560577 271.69017598 17.02395839 271.70260114 14.72240257 271.72349358 C11.4982367 271.75043106 8.2755678 271.74557449 5.05134583 271.733078 C3.63353065 271.75532944 3.63353065 271.75532944 2.18707275 271.7780304 C-3.03356919 271.72058094 -7.61172876 271.19315555 -11.93723392 268.08027363 C-15.34682381 263.59264643 -14.49040025 257.56872615 -14.4037323 252.18302917 C-14.40966418 250.74537405 -14.41904503 249.30772964 -14.43161011 247.87011719 C-14.45525 243.97065383 -14.42879928 240.07299033 -14.39199281 236.17368746 C-14.36053704 232.08902637 -14.37055866 228.00444374 -14.37484741 223.91969299 C-14.37567656 217.05811541 -14.34485393 210.19724207 -14.2943573 203.33586121 C-14.23634234 195.4120835 -14.22399635 187.48926941 -14.23721677 179.56531203 C-14.2492351 171.9347158 -14.23278319 164.30445233 -14.20207787 156.67391586 C-14.18928513 153.43082258 -14.18566661 150.18791258 -14.18935585 146.94479752 C-14.19212739 143.12114632 -14.16967089 139.29842957 -14.12806892 135.47501183 C-14.11670469 134.07506648 -14.11370782 132.67502328 -14.11987686 131.27504539 C-14.14867397 123.36930414 -14.14467022 117.92338065 -8.41618347 112.13371277 C-5.59196472 111.34465027 -5.59196472 111.34465027 -2.72868347 111.50871277 C-1.77606628 111.53707214 -0.8234491 111.56543152 0.15803528 111.59465027 C2.58381653 112.13371277 2.58381653 112.13371277 4.58381653 115.13371277 C5.34694153 115.56683777 6.11006653 115.99996277 6.89631653 116.44621277 C9.59613017 118.14144459 11.07021839 119.93169451 13.02131653 122.40715027 C15.65764947 125.32029817 18.80769208 127.58523326 21.90022278 129.99308777 C27.02807129 134.08342399 31.79976957 138.58784474 36.63850403 143.01261902 C40.92383306 146.85908905 45.38723028 150.17959264 50.18928528 153.36027527 C52.9436524 155.40021438 55.1913075 157.67787262 57.58381653 160.13371277 C59.99872499 162.49111501 62.4452509 164.81399849 64.89631653 167.13371277 C65.52215637 167.73699402 66.14799622 168.34027527 66.7928009 168.96183777 C70.57898723 172.53444435 74.35753714 175.30423933 78.83039856 177.95231628 C81.29044208 179.60981428 82.80443947 181.78226041 84.58381653 184.13371277 C86.5179854 185.71137734 88.50061665 187.23101424 90.52131653 188.69621277 C96.27180095 192.89094034 101.58370077 197.05760741 106.58381653 202.13371277 C113.49727806 208.76950634 120.60649855 215.11990376 128.09553528 221.10246277 C130.38776419 222.97367004 132.54403274 224.93087165 134.70881653 226.94621277 C138.57636539 230.3965157 142.75678534 232.33474976 147.58381653 234.13371277 C147.58381653 234.79371277 147.58381653 235.45371277 147.58381653 236.13371277 C150.89600885 236.25150377 154.20765145 236.32148432 157.52131653 236.38371277 C158.91060364 236.43398621 158.91060364 236.43398621 160.32795715 236.48527527 C169.48947622 236.61385799 175.82592065 233.50106666 183.45881653 228.63371277 C184.3637384 228.06652527 185.26866028 227.49933777 186.20100403 226.91496277 C192.29785423 222.35731737 194.56369983 215.25073929 196.58381653 208.13371277 C197.60425141 199.27633802 196.39353297 190.5628621 193.58381653 182.13371277 C192.92381653 182.13371277 192.26381653 182.13371277 191.58381653 182.13371277 C191.37756653 181.41183777 191.17131653 180.68996277 190.95881653 179.94621277 C189.13258944 176.21074827 186.84094846 174.6978379 183.58381653 172.13371277 C183.25381653 171.47371277 182.92381653 170.81371277 182.58381653 170.13371277 C181.88256653 169.74183777 181.18131653 169.34996277 180.45881653 168.94621277 C177.97017953 167.37728944 176.40220589 166.03271707 174.39631653 163.94621277 C170.91135731 160.34810552 167.12288047 157.31832257 163.18537903 154.23136902 C160.5853834 152.13497615 158.11289754 149.94745735 155.64631653 147.69621277 C151.40061209 143.82687715 147.01454568 140.18326434 142.55256653 136.56730652 C133.48119648 129.13117028 124.67692969 121.36394827 115.82112122 113.67375183 C115.23878723 113.16811707 114.65645325 112.6624823 114.05647278 112.14152527 C113.48807678 111.6474115 112.91968079 111.15329773 112.33406067 110.64421082 C111.11500525 109.59213997 109.88973125 108.5472499 108.65974426 107.50798035 C108.03656311 106.98099548 107.41338196 106.45401062 106.77131653 105.91105652 C106.20928528 105.43917908 105.64725403 104.96730164 105.06819153 104.48112488 C102.97262838 102.57891879 101.34221986 100.34589761 99.58381653 98.13371277 C98.61444153 97.39121277 97.64506653 96.64871277 96.64631653 95.88371277 C91.79343746 92.00387291 88.87373209 86.14238921 87.58381653 80.13371277 C86.59767247 61.54869012 86.59767247 61.54869012 90.58381653 55.13371277 C91.03627747 54.40023621 91.4887384 53.66675964 91.95491028 52.91105652 C96.98886101 45.68003377 103.7640555 40.31889991 112.39631653 38.19621277 C113.79134884 38.14454491 115.18783586 38.12894833 116.58381653 38.13371277 C117.66920715 38.07441589 118.75459778 38.01511902 119.87287903 37.95402527 C137.46012734 37.31380424 146.47285649 47.28726092 158.83381653 58.66496277 C161.52119287 61.0774938 164.27347097 63.36627487 167.08381653 65.63371277 C170.86841987 68.68719956 174.5058919 71.84039578 178.08381653 75.13371277 C182.55017853 79.2442906 187.16764958 83.0980587 191.88850403 86.91105652 C196.25029059 90.50795007 200.40210845 94.33088428 204.58381653 98.13371277 C213.24081875 105.88474964 222.19995959 113.277313 231.58381653 120.13371277 C230.55880544 105.95090633 226.1402666 93.41955119 219.33137512 80.97331238 C218.58381653 79.13371277 218.58381653 79.13371277 218.58381653 75.13371277 C218.02694153 74.90683777 217.47006653 74.67996277 216.89631653 74.44621277 C212.54050463 71.9739952 209.76652905 68.58316972 207.27131653 64.32121277 C202.27990544 56.09462782 194.83757405 50.63165328 187.12287903 45.11418152 C184.58381653 43.13371277 184.58381653 43.13371277 182.58381653 40.13371277 C180.64317407 39.04891817 180.64317407 39.04891817 178.39631653 38.19621277 C175.53262739 37.03769755 173.03670393 35.80277637 170.38069153 34.19621277 C166.14441088 31.73726489 161.7090491 30.41834583 157.02131653 29.07121277 C155.81378723 28.70673035 155.81378723 28.70673035 154.5818634 28.33488464 C142.92344754 24.90379738 131.69518509 22.6857183 119.51985168 22.70133972 C118.29861099 22.69114807 117.0773703 22.68095642 115.81912231 22.67045593 C112.5204061 22.64571481 109.22195817 22.63365196 105.92316484 22.62760186 C102.45714733 22.61812178 98.99125379 22.59191198 95.52531433 22.56759644 C88.98447643 22.52418949 82.44366294 22.49548508 75.90272558 22.47227305 C68.44660579 22.44508166 60.99061233 22.40117975 53.53458333 22.35598433 C38.21772635 22.26350841 22.90084547 22.19165957 7.58381653 22.13371277 C7.47868271 26.67019863 7.44067869 31.20079064 7.46174622 35.7384491 C7.45981317 37.27763847 7.44032729 38.8169189 7.4021759 40.3556366 C7.05120944 49.75721921 7.05120944 49.75721921 10.78147888 58.12190247 C13.27945652 60.37526454 15.77993916 62.28230895 18.58381653 64.13371277 C19.5609259 64.94582214 20.53803528 65.75793152 21.54475403 66.59465027 C22.73971497 67.54211121 22.73971497 67.54211121 23.95881653 68.50871277 C28.5108196 72.18878286 32.81633901 76.05894161 37.09846497 80.04289246 C41.23262881 83.86665953 45.54879403 87.42213305 49.93537903 90.95402527 C52.55656772 93.11128675 55.07535934 95.34682277 57.58381653 97.63371277 C61.00121025 100.74829945 64.48904003 103.72557897 68.08381653 106.63371277 C71.67859303 109.54184657 75.16642281 112.51912609 78.58381653 115.63371277 C82.90659903 119.57285689 87.38617827 123.27180915 91.93147278 126.95011902 C95.12976656 129.58317679 98.20100787 132.33887081 101.27912903 135.11027527 C103.78722863 137.3123017 106.36201949 139.41214859 108.95881653 141.50871277 C113.7492862 145.39179543 118.293731 149.48622296 122.82991028 153.66105652 C126.41993148 156.88443725 130.15982971 159.89922059 133.91194153 162.93058777 C137.32315033 165.74333889 140.58140651 168.70396989 143.84944153 171.68058777 C147.07172497 174.57143634 150.35314247 177.38673463 153.64631653 180.19621277 C157.74563463 183.6989139 161.84316053 187.20252017 165.89631653 190.75871277 C166.59369934 191.36972839 167.29108215 191.98074402 168.00959778 192.61027527 C170.58378248 195.10142176 170.59215202 196.23540578 170.89631653 199.94621277 C170.8605512 203.22470111 170.57973256 204.14033161 168.77131653 207.07121277 C165.35813423 210.28935608 161.68998088 210.75871277 157.14241028 210.75871277 C151.85725755 209.46768309 148.14816106 205.05166291 144.58381653 201.13371277 C144.25381653 200.47371277 143.92381653 199.81371277 143.58381653 199.13371277 C141.91816081 198.13202978 140.25132577 197.13230713 138.58381653 196.13371277 C137.00970082 194.79598303 135.46916865 193.41803799 133.95881653 192.00871277 C130.39748454 188.74371747 126.77713464 185.6106336 123.02131653 182.57121277 C118.86873097 179.21070524 114.86188106 175.73428779 110.89241028 172.16105652 C108.36140062 169.93839322 105.76468687 167.81514641 103.14631653 165.69621277 C97.79123675 161.35081982 92.68525305 156.77138234 87.58381653 152.13371277 C82.94077194 147.99413085 78.21036948 143.96035854 73.45881653 139.94621277 C63.24707067 131.3171981 53.08734746 122.6733052 43.26350403 113.60246277 C38.58427542 109.29156994 33.92009747 105.06578073 28.77131653 101.32121277 C24.3393813 98.06881412 20.38818912 94.34773671 16.35334778 90.62199402 C13.93251779 88.4470029 11.47135764 86.43267306 8.89631653 84.44621277 C4.03539222 80.63140971 -0.46953216 76.47691895 -4.97868347 72.25871277 C-6.05219055 71.25771545 -6.05219055 71.25771545 -7.14738464 70.23649597 C-7.81487732 69.60703064 -8.48237 68.97756531 -9.17008972 68.32902527 C-9.77151794 67.7619989 -10.37294617 67.19497253 -10.99259949 66.61076355 C-13.70793799 63.79344269 -13.55993034 61.54694148 -13.60905457 57.75358582 C-13.62511749 56.62869247 -13.64118042 55.50379913 -13.6577301 54.34481812 C-13.70209823 49.19805186 -13.74368449 44.05137476 -13.76628113 38.90446472 C-13.77961559 36.18732498 -13.80745729 33.47093717 -13.84831238 30.7540741 C-13.90712515 26.84288047 -13.9249431 22.93205225 -13.93962097 19.02043152 C-13.96229034 17.80570663 -13.98495972 16.59098175 -14.00831604 15.33944702 C-13.98474604 5.95829719 -13.98474604 5.95829719 -11.07096863 2.89079285 C-7.24085619 0.35581775 -4.49042178 0.00768381 0 0 Z " fill="#090909" transform="translate(79.41618347167969,18.866287231445313)"/>
<path d="M0 0 C4.82370351 3.61777763 9.15326446 6.89844002 13.5 10.9375 C17.44791194 14.58299529 21.44276352 18.14732576 25.5390625 21.625 C28.05973663 23.99739918 28.01927306 25.23513133 28.3125 28.8125 C28.27673467 32.09098835 27.99591603 33.00661884 26.1875 35.9375 C22.7743177 39.15564331 19.10616435 39.625 14.55859375 39.625 C9.27344102 38.33397033 5.56434453 33.91795014 2 30 C1.67 29.34 1.34 28.68 1 28 C0.175 27.505 -0.65 27.01 -1.5 26.5 C-4 25 -4 25 -5 23 C-3.68 23 -2.36 23 -1 23 C-0.67 15.41 -0.34 7.82 0 0 Z " fill="#2A2A2A" transform="translate(222,190)"/>
<path d="M0 0 C2 1 2 1 3.0546875 3.05078125 C4.23173874 6.72298656 4.7148562 10.37059138 5.125 14.1875 C5.20919189 14.94345459 5.29338379 15.69940918 5.38012695 16.47827148 C6.26227146 24.82334062 6.23041092 32.6947263 5 41 C4.67 41 4.34 41 4 41 C4 39.35 4 37.7 4 36 C2.68 35.67 1.36 35.34 0 35 C-0.33 29.06 -0.66 23.12 -1 17 C-2.65 16.34 -4.3 15.68 -6 15 C-5.99476318 15.57032959 -5.98952637 16.14065918 -5.98413086 16.72827148 C-5.96341779 19.29800323 -5.9503581 21.86771747 -5.9375 24.4375 C-5.92912109 25.33533203 -5.92074219 26.23316406 -5.91210938 27.15820312 C-5.90888672 28.01220703 -5.90566406 28.86621094 -5.90234375 29.74609375 C-5.89710693 30.53685303 -5.89187012 31.3276123 -5.88647461 32.14233398 C-6 34 -6 34 -7 35 C-8.11375 35.12375 -9.2275 35.2475 -10.375 35.375 C-13.90207504 35.98311639 -14.94362388 36.21784407 -17 39 C-16.83886719 38.30261719 -16.67773438 37.60523438 -16.51171875 36.88671875 C-14.79544918 27.20486219 -15.90769988 17.27690037 -19 8 C-19.66 8 -20.32 8 -21 8 C-21 7.34 -21 6.68 -21 6 C-15.97745369 5.7045561 -13.10457614 6.01485372 -9 9 C-9 8.34 -9 7.68 -9 7 C-6.04335481 5.5216774 -3.25770263 5.93967217 0 6 C0 4.02 0 2.04 0 0 Z " fill="#1B1B1B" transform="translate(292,193)"/>
<path d="M0 0 C2.70995238 1.06462415 3.96837862 1.95895503 5.76953125 4.296875 C8.23259748 7.28188696 10.80843177 9.29362959 13.9375 11.5625 C20.03571658 16.01088302 25.30472043 20.09736283 30 26 C29.34 26 28.68 26 28 26 C27.67 27.32 27.34 28.64 27 30 C25.35 26.7 23.7 23.4 22 20 C21.34 20 20.68 20 20 20 C19.90912109 21.15628906 19.90912109 21.15628906 19.81640625 22.3359375 C19.73261719 23.33882812 19.64882812 24.34171875 19.5625 25.375 C19.48128906 26.37273437 19.40007812 27.37046875 19.31640625 28.3984375 C19 31 19 31 18 33 C16.02 32.67 14.04 32.34 12 32 C11.505 22.595 11.505 22.595 11 13 C8.525 12.505 8.525 12.505 6 12 C5.85484323 15.10367497 5.76599147 18.20648027 5.6875 21.3125 C5.64560547 22.19357422 5.60371094 23.07464844 5.56054688 23.98242188 C5.51420618 26.41994228 5.51388656 28.60970257 6 31 C8.34196848 33.20162663 8.34196848 33.20162663 11 34 C10.67 34.99 10.34 35.98 10 37 C9.16855469 36.28972656 8.33710938 35.57945312 7.48046875 34.84765625 C6.38301003 33.91903734 5.28534287 32.99066473 4.1875 32.0625 C3.64029297 31.59392578 3.09308594 31.12535156 2.52929688 30.64257812 C0.02785775 28.53530517 -1.86702907 27.04432364 -5 26 C-6.1875 23.9375 -6.1875 23.9375 -7 22 C-5.68 22.33 -4.36 22.66 -3 23 C-2.93941406 22.09636719 -2.87882813 21.19273437 -2.81640625 20.26171875 C-2.73261719 19.08222656 -2.64882812 17.90273437 -2.5625 16.6875 C-2.48128906 15.51574219 -2.40007812 14.34398437 -2.31640625 13.13671875 C-2 10 -2 10 -1 7 C-0.34 7 0.32 7 1 7 C1.15149298 3.37114676 1.15149298 3.37114676 0 0 Z " fill="#171717" transform="translate(156,196)"/>
<path d="M0 0 C0.99 0.33 1.98 0.66 3 1 C2.34 1 1.68 1 1 1 C1 34.99 1 68.98 1 104 C0.67 104 0.34 104 0 104 C0 83.87 0 63.74 0 43 C-1.65 43.66 -3.3 44.32 -5 45 C-5.33 50.94 -5.66 56.88 -6 63 C-8.475 63.495 -8.475 63.495 -11 64 C-14.55889146 60.44110854 -13.49648673 55.14404203 -13.50415039 50.33081055 C-13.35973447 44.40863409 -12.51127464 40.20679252 -8.99609375 35.30078125 C-7 34 -7 34 0 34 C0 22.78 0 11.56 0 0 Z " fill="#2A2A2A" transform="translate(86,165)"/>
<path d="M0 0 C7.40898112 -0.40992314 14.04327239 -0.33848892 20 4.6875 C21.49459138 8.14374257 21.62253938 11.34439084 21 15 C19.5625 18 19.5625 18 17 20 C13.95366309 20.4037314 11.05279768 20.29353824 8 20 C9.26953125 18.53515625 10.5390625 17.0703125 11.80859375 15.60546875 C13.20871231 13.89287029 13.20871231 13.89287029 14 11 C13.34 11 12.68 11 12 11 C11.690625 11.804375 11.38125 12.60875 11.0625 13.4375 C10 16 10 16 9 17 C6.66702567 17.04092937 4.33294775 17.04241723 2 17 C1 14 1 14 1 11 C0.67 10.67 0.34 10.34 0 10 C-0.07205511 8.31391034 -0.08386068 6.62499341 -0.0625 4.9375 C-0.05347656 4.01839844 -0.04445312 3.09929687 -0.03515625 2.15234375 C-0.02355469 1.44207031 -0.01195312 0.73179687 0 0 Z " fill="#0C0C0C" transform="translate(229,208)"/>
<path d="M0 0 C1.56640625 1.2890625 1.56640625 1.2890625 2.56640625 3.2890625 C2.79670581 5.66029496 2.97760567 8.03648193 3.12890625 10.4140625 C3.25458984 12.33605469 3.25458984 12.33605469 3.3828125 14.296875 C3.44339844 15.28429687 3.50398438 16.27171875 3.56640625 17.2890625 C-1.30859375 14.5390625 -1.30859375 14.5390625 -2.43359375 12.2890625 C-3.13484375 11.8971875 -3.83609375 11.5053125 -4.55859375 11.1015625 C-8.41393425 8.67102175 -11.29015823 5.56138604 -14.43359375 2.2890625 C-15.41030945 1.30745098 -16.38914932 0.3279435 -17.37109375 -0.6484375 C-18.05171875 -1.3290625 -18.73234375 -2.0096875 -19.43359375 -2.7109375 C-11.62036641 -4.66424434 -6.63917154 -4.44343771 0 0 Z " fill="#2A2A2A" transform="translate(264.43359375,176.7109375)"/>
<path d="M0 0 C1.7015625 0.2784375 1.7015625 0.2784375 3.4375 0.5625 C7.49637421 1.11762134 10.94143029 0.65335008 14.921875 -0.234375 C17 0 17 0 19.25 1.87109375 C21.69971653 6.25105568 21.44092029 9.88895953 21.25 14.8125 C21.23195313 15.69615234 21.21390625 16.57980469 21.1953125 17.49023438 C21.14838513 19.66062543 21.07664731 21.83045519 21 24 C20.34 24 19.68 24 19 24 C18.505 14.595 18.505 14.595 18 5 C15.36 5 12.72 5 10 5 C8.48578999 6.51421001 8.78690144 7.92472768 8.68359375 10.03515625 C8.64169922 10.84404297 8.59980469 11.65292969 8.55664062 12.48632812 C8.51732422 13.33646484 8.47800781 14.18660156 8.4375 15.0625 C8.39431641 15.91650391 8.35113281 16.77050781 8.30664062 17.65039062 C8.20023298 19.76672037 8.09958269 21.88333813 8 24 C7.01 23.67 6.02 23.34 5 23 C4.94392578 22.12988281 4.94392578 22.12988281 4.88671875 21.2421875 C4.45248868 16.08251261 3.37123066 12.64366005 1 8 C0.47843517 5.32393371 0.2347462 2.72305591 0 0 Z " fill="#090909" transform="translate(275,202)"/>
<path d="M0 0 C1.44439453 0.12181641 1.44439453 0.12181641 2.91796875 0.24609375 C3.89378906 0.30925781 4.86960937 0.37242187 5.875 0.4375 C6.61105469 0.51871094 7.34710938 0.59992188 8.10546875 0.68359375 C8.43546875 1.34359375 8.76546875 2.00359375 9.10546875 2.68359375 C8.10966797 2.70486328 8.10966797 2.70486328 7.09375 2.7265625 C6.21074219 2.77425781 5.32773438 2.82195312 4.41796875 2.87109375 C3.54785156 2.90589844 2.67773438 2.94070312 1.78125 2.9765625 C-1.0295818 3.71927864 -2.82781167 4.61100744 -4.83731651 6.73396873 C-7.40990559 11.47811754 -6.53360065 17.48396822 -6.4621582 22.74536133 C-6.4607472 24.19435578 -6.46154073 25.64335381 -6.46437073 27.09234619 C-6.46580429 31.01992493 -6.43642508 34.9467389 -6.40150094 38.87414002 C-6.37022704 42.98072565 -6.3673059 47.08732916 -6.3613739 51.1940155 C-6.34583844 58.96782275 -6.30481419 66.74127809 -6.25462645 74.51493043 C-6.19872359 83.36609785 -6.17124415 92.21728214 -6.14614928 101.06858218 C-6.09389792 119.27378549 -6.00596159 137.47866132 -5.89453125 155.68359375 C-6.55453125 155.35359375 -7.21453125 155.02359375 -7.89453125 154.68359375 C-8.01139245 135.63813932 -8.09953305 116.59275776 -8.15359211 97.547019 C-8.17936116 88.7035059 -8.21448671 79.86021572 -8.27172852 71.0168457 C-8.32160343 63.30791481 -8.35383171 55.59914538 -8.36497372 47.89005762 C-8.37148563 43.80900333 -8.38676282 39.7284109 -8.42318153 35.64750481 C-8.45720601 31.80361834 -8.46757147 27.96038247 -8.46006966 24.11635971 C-8.46144135 22.70827634 -8.47133617 21.30017046 -8.49055862 19.89221764 C-8.64557964 7.94837532 -8.64557964 7.94837532 -5.53996277 3.33326721 C-2.89453125 0.68359375 -2.89453125 0.68359375 0 0 Z " fill="#464646" transform="translate(73.89453125,130.31640625)"/>
<path d="M0 0 C9.75078864 -0.62460568 9.75078864 -0.62460568 14.5 1.75 C19.28597731 6.05737958 20.34452618 8.60487519 20.7890625 14.9765625 C20.88700579 17.06739849 20.88700579 17.06739849 22 19 C19.00107153 17.64494082 16.819479 16.10612876 14.43359375 13.84765625 C13.78326172 13.23599609 13.13292969 12.62433594 12.46289062 11.99414062 C11.79451172 11.35669922 11.12613281 10.71925781 10.4375 10.0625 C9.76525391 9.42892578 9.09300781 8.79535156 8.40039062 8.14257812 C5.56342909 5.46338208 2.74939773 2.76924144 0 0 Z " fill="#0C0C0C" transform="translate(127,199)"/>
<path d="M0 0 C0.33 0 0.66 0 1 0 C1.84399598 4.4501606 2.2846279 7.07914503 0.9375 11.4375 C-1 14 -1 14 -3.46186829 14.65206909 C-8.16742993 15.1148021 -12.82199634 15.1391198 -17.54760742 15.12939453 C-19.12177177 15.13202301 -19.12177177 15.13202301 -20.72773743 15.13470459 C-24.18699815 15.13909616 -27.64620753 15.13619522 -31.10546875 15.1328125 C-33.51109324 15.13348616 -35.91671766 15.13445671 -38.32234192 15.13571167 C-43.35837453 15.13718486 -48.39438938 15.13504565 -53.43041992 15.13037109 C-59.89366914 15.12466484 -66.35687692 15.12796088 -72.82012463 15.13394356 C-77.78453384 15.13755152 -82.74893316 15.13640965 -87.71334267 15.13381577 C-90.0972424 15.13314763 -92.48114303 15.13397099 -94.86504173 15.13629532 C-98.19024419 15.13882667 -101.51537878 15.13497477 -104.84057617 15.12939453 C-105.83024384 15.13141876 -106.8199115 15.13344299 -107.83956909 15.13552856 C-109.1958416 15.13129883 -109.1958416 15.13129883 -110.57951355 15.12698364 C-111.3653844 15.12660662 -112.15125525 15.12622959 -112.96094036 15.12584114 C-115 15 -115 15 -118 14 C-118 13.34 -118 12.68 -118 12 C-117.43130377 12.16210339 -116.86260754 12.32420677 -116.27667809 12.49122238 C-113.96235309 13.00841309 -111.94135595 13.13120701 -109.57315063 13.14044189 C-108.69283676 13.14615204 -107.81252289 13.15186218 -106.90553284 13.15774536 C-105.94751266 13.15886322 -104.98949249 13.15998108 -104.00244141 13.16113281 C-102.98737015 13.16609772 -101.97229889 13.17106262 -100.9264679 13.17617798 C-97.56815921 13.19078435 -94.20989774 13.19759863 -90.8515625 13.203125 C-88.51752725 13.20887713 -86.18349201 13.21463486 -83.84945679 13.22039795 C-78.95529968 13.2309032 -74.06115898 13.23674918 -69.16699219 13.24023438 C-62.89671303 13.24572205 -56.6266507 13.26975813 -50.35643959 13.29820633 C-45.53515997 13.31683072 -40.71393264 13.32203818 -35.89262009 13.32357025 C-33.58096505 13.32659708 -31.26931093 13.33462661 -28.95769119 13.34775543 C-25.72374203 13.36481348 -22.49032357 13.36293619 -19.25634766 13.35644531 C-17.82539009 13.37026749 -17.82539009 13.37026749 -16.36552429 13.3843689 C-11.17433344 13.35173678 -7.4512173 12.98403002 -3 10 C-0.70366176 6.55549263 -0.45983515 4.06187717 0 0 Z " fill="#BEBEBE" transform="translate(188,276)"/>
<path d="M0 0 C1.31611677 0.95336021 2.62778961 1.91285774 3.9375 2.875 C4.66839844 3.40867188 5.39929688 3.94234375 6.15234375 4.4921875 C8 6 8 6 9 8 C3.72 7.34 -1.56 6.68 -7 6 C-6.87625 7.588125 -6.7525 9.17625 -6.625 10.8125 C-6.55539063 11.70582031 -6.48578125 12.59914062 -6.4140625 13.51953125 C-6.13354964 16.24398499 -6.13354964 16.24398499 -4 19 C-4.375 21.1875 -4.375 21.1875 -5 23 C-1.59919423 22.89592083 -1.59919423 22.89592083 2 22 C3.84434349 19.53884453 3.84434349 19.53884453 5 17 C5.66 17 6.32 17 7 17 C6.45773019 20.79588866 4.79872437 22.47211993 2 25 C3.65 25.33 5.3 25.66 7 26 C7 26.33 7 26.66 7 27 C1.97539029 27.72937883 -0.59609879 27.99612908 -4.82421875 24.99609375 C-7.30425037 22.73540872 -9.68850141 20.43214048 -12 18 C-11.34 17.67 -10.68 17.34 -10 17 C-9.34 17.33 -8.68 17.66 -8 18 C-8.33 17.34 -8.66 16.68 -9 16 C-9.07092842 13.7927077 -9.08415025 11.58332548 -9.0625 9.375 C-9.05347656 8.18648437 -9.04445312 6.99796875 -9.03515625 5.7734375 C-9.02355469 4.85820312 -9.01195312 3.94296875 -9 3 C-6.03 3 -3.06 3 0 3 C0 2.01 0 1.02 0 0 Z " fill="#232323" transform="translate(236,202)"/>
<path d="M0 0 C2 1 2 1 3.0546875 3.05078125 C4.2317807 6.72311748 4.71407357 10.37060946 5.125 14.1875 C5.20991699 14.93765381 5.29483398 15.68780762 5.38232422 16.46069336 C5.97574238 22.00145185 6.17697432 27.42530878 6 33 C5.34 33 4.68 33 4 33 C3.98541748 32.44538086 3.97083496 31.89076172 3.95581055 31.31933594 C3.88113103 28.79553758 3.78453975 26.27303346 3.6875 23.75 C3.66494141 22.87730469 3.64238281 22.00460938 3.61914062 21.10546875 C3.46920057 17.53416916 3.28873204 14.66645683 1.859375 11.3671875 C-0.97283058 9.2846834 -3.02497939 9.90243755 -6.4375 10.375 C-13.45477931 11.31702384 -13.45477931 11.31702384 -17 9 C-17.33 9.66 -17.66 10.32 -18 11 C-18.33 10.01 -18.66 9.02 -19 8 C-19.66 8 -20.32 8 -21 8 C-21 7.34 -21 6.68 -21 6 C-15.97745369 5.7045561 -13.10457614 6.01485372 -9 9 C-9 8.34 -9 7.68 -9 7 C-6.04335481 5.5216774 -3.25770263 5.93967217 0 6 C0 4.02 0 2.04 0 0 Z " fill="#1C1C1C" transform="translate(292,193)"/>
<path d="M0 0 C1.91015625 0.23046875 1.91015625 0.23046875 3.91015625 2.23046875 C3.53515625 5.85546875 3.53515625 5.85546875 2.91015625 9.23046875 C2.25015625 9.23046875 1.59015625 9.23046875 0.91015625 9.23046875 C1.57015625 10.88046875 2.23015625 12.53046875 2.91015625 14.23046875 C-0.80029622 12.65265952 -3.38890759 10.32343627 -6.33984375 7.60546875 C-7.231875 6.78820312 -8.12390625 5.9709375 -9.04296875 5.12890625 C-10.05617187 4.18917969 -10.05617187 4.18917969 -11.08984375 3.23046875 C-10.45046875 2.92109375 -9.81109375 2.61171875 -9.15234375 2.29296875 C-5.78698585 0.55929953 -4.04286168 0.08071049 0 0 Z " fill="#262626" transform="translate(214.08984375,198.76953125)"/>
<path d="M0 0 C3.82946843 1.45255699 5.12050295 3.42895561 7 7 C5.35 7.33 3.7 7.66 2 8 C0.75325666 11.74023002 0.85447245 15.2316086 0.875 19.125 C0.87113281 19.86621094 0.86726562 20.60742188 0.86328125 21.37109375 C0.53253342 24.98229969 0.53253342 24.98229969 2 28 C2.66 26.68 3.32 25.36 4 24 C4.17015625 24.55429688 4.3403125 25.10859375 4.515625 25.6796875 C5.90825986 30.25122977 5.90825986 30.25122977 9.1875 33.5 C9.785625 33.665 10.38375 33.83 11 34 C10.67 34.99 10.34 35.98 10 37 C9.16855469 36.28972656 8.33710938 35.57945312 7.48046875 34.84765625 C6.38301003 33.91903734 5.28534287 32.99066473 4.1875 32.0625 C3.64029297 31.59392578 3.09308594 31.12535156 2.52929688 30.64257812 C0.02785775 28.53530517 -1.86702907 27.04432364 -5 26 C-6.1875 23.9375 -6.1875 23.9375 -7 22 C-5.68 22.33 -4.36 22.66 -3 23 C-2.93941406 22.09636719 -2.87882813 21.19273437 -2.81640625 20.26171875 C-2.73261719 19.08222656 -2.64882812 17.90273437 -2.5625 16.6875 C-2.48128906 15.51574219 -2.40007812 14.34398437 -2.31640625 13.13671875 C-2 10 -2 10 -1 7 C-0.34 7 0.32 7 1 7 C1.15149298 3.37114676 1.15149298 3.37114676 0 0 Z " fill="#313131" transform="translate(156,196)"/>
<path d="M0 0 C4.875 0.875 4.875 0.875 6 2 C6.04080783 3.99958364 6.04254356 6.00045254 6 8 C5.01 8 4.02 8 3 8 C2.690625 8.804375 2.38125 9.60875 2.0625 10.4375 C1 13 1 13 0 14 C-2.33297433 14.04092937 -4.66705225 14.04241723 -7 14 C-8 11 -8 11 -7 8 C-5.35 8 -3.7 8 -2 8 C-2.061875 6.8553125 -2.061875 6.8553125 -2.125 5.6875 C-2 3 -2 3 0 0 Z " fill="#1C1C1C" transform="translate(238,211)"/>
<path d="M0 0 C0.99 0 1.98 0 3 0 C3 1.98 3 3.96 3 6 C5.97 6 8.94 6 12 6 C12 6.99 12 7.98 12 9 C9.03 9 6.06 9 3 9 C3.33 13.95 3.66 18.9 4 24 C2.68 23.67 1.36 23.34 0 23 C0 15.41 0 7.82 0 0 Z " fill="#0A0A0A" transform="translate(224,196)"/>
<path d="M0 0 C0.33 0 0.66 0 1 0 C1 6.27 1 12.54 1 19 C-1.31 19.33 -3.62 19.66 -6 20 C-7.92283085 21.41591827 -7.92283085 21.41591827 -9 23 C-8.83628906 22.35675781 -8.67257812 21.71351563 -8.50390625 21.05078125 C-7.84665324 17.07159829 -7.893647 13.2118563 -7.9375 9.1875 C-7.94201172 8.39923828 -7.94652344 7.61097656 -7.95117188 6.79882812 C-7.96288688 4.86585239 -7.98082002 2.93291607 -8 1 C-4.78320603 5.82519095 -3.71153892 8.35672366 -3.34375 14.0390625 C-3.2303125 14.68617188 -3.116875 15.33328125 -3 16 C-2.34 16.33 -1.68 16.66 -1 17 C-0.67 11.39 -0.34 5.78 0 0 Z " fill="#272727" transform="translate(284,209)"/>
<path d="M0 0 C0.721875 0.12375 1.44375 0.2475 2.1875 0.375 C2.1875 1.365 2.1875 2.355 2.1875 3.375 C0.9809375 3.808125 0.9809375 3.808125 -0.25 4.25 C-2.9451468 5.10762568 -2.9451468 5.10762568 -3.8125 7.375 C-4.0447646 10.08762116 -4.23186235 12.78273126 -4.375 15.5 C-4.41818359 16.25410156 -4.46136719 17.00820312 -4.50585938 17.78515625 C-4.6119832 19.64821888 -4.71275001 21.51158524 -4.8125 23.375 C-5.8025 23.375 -6.7925 23.375 -7.8125 23.375 C-7.9483035 20.66496573 -8.04694624 17.96181059 -8.125 15.25 C-8.16689453 14.48945313 -8.20878906 13.72890625 -8.25195312 12.9453125 C-8.34123057 8.80283909 -8.09186316 6.15607328 -5.46875 2.84375 C-2.8125 0.375 -2.8125 0.375 0 0 Z " fill="#0A0A0A" transform="translate(82.8125,201.625)"/>
<path d="M0 0 C-1 3 -1 3 -2.51953125 4.17578125 C-4.90322306 7.1129424 -4.57642596 10.55379201 -4.6875 14.1875 C-4.72166016 14.93708984 -4.75582031 15.68667969 -4.79101562 16.45898438 C-4.87334294 18.30546838 -4.93835281 20.15270994 -5 22 C-5.99 21.34 -6.98 20.68 -8 20 C-8.33212151 17.27720201 -8.46398719 14.84595682 -8.4375 12.125 C-8.45748047 11.40441406 -8.47746094 10.68382812 -8.49804688 9.94140625 C-8.49483254 6.45063409 -8.26104095 4.36832591 -6.22265625 1.4921875 C-4 0 -4 0 0 0 Z " fill="#0B0B0B" transform="translate(164,203)"/>
<path d="M0 0 C1.7492214 -0.08142927 3.49954542 -0.13938541 5.25 -0.1875 C6.22453125 -0.22230469 7.1990625 -0.25710937 8.203125 -0.29296875 C11.37468742 0.03924798 12.67040307 0.88672279 15 3 C14.67 3.66 14.34 4.32 14 5 C12.35 4.67 10.7 4.34 9 4 C9.7115625 5.175625 9.7115625 5.175625 10.4375 6.375 C11.33898023 7.88948678 12.21179485 9.4235897 13 11 C9.54691313 9.48729451 7.04375621 7.45279358 4.25 4.9375 C3.45078125 4.22464844 2.6515625 3.51179687 1.828125 2.77734375 C1.22484375 2.19082031 0.6215625 1.60429687 0 1 C0 0.67 0 0.34 0 0 Z " fill="#2F2F2F" transform="translate(127,199)"/>
<path d="M0 0 C2.9375 0.75 2.9375 0.75 6 2 C6.875 4.125 6.875 4.125 7 6 C10.40080577 5.89592083 10.40080577 5.89592083 14 5 C15.84434349 2.53884453 15.84434349 2.53884453 17 0 C17.66 0 18.32 0 19 0 C18.45773019 3.79588866 16.79872437 5.47211993 14 8 C15.65 8.33 17.3 8.66 19 9 C19 9.33 19 9.66 19 10 C13.99549875 10.72645986 11.40835611 10.98175862 7.17578125 8.03125 C4.66813354 5.7704321 2.26625224 3.50281301 0 1 C0 0.67 0 0.34 0 0 Z " fill="#1F1F1F" transform="translate(224,219)"/>
<path d="M0 0 C2 1 2 1 3.0546875 3.05078125 C4.2317807 6.72311748 4.71407357 10.37060946 5.125 14.1875 C5.20991699 14.93765381 5.29483398 15.68780762 5.38232422 16.46069336 C5.97574238 22.00145185 6.17697432 27.42530878 6 33 C5.34 33 4.68 33 4 33 C3.92652344 31.02966797 3.92652344 31.02966797 3.8515625 29.01953125 C3.77650532 27.28383405 3.70095877 25.54815797 3.625 23.8125 C3.5940625 22.94818359 3.563125 22.08386719 3.53125 21.19335938 C3.3232867 16.67015768 2.90372152 13.16439083 1 9 C0.5859375 6.54296875 0.5859375 6.54296875 0.375 4.1875 C0.30023438 3.39730469 0.22546875 2.60710937 0.1484375 1.79296875 C0.09945313 1.20128906 0.05046875 0.60960937 0 0 Z " fill="#252525" transform="translate(292,193)"/>
<path d="M0 0 C3.875 1.75 3.875 1.75 5 4 C5.08342159 5.44848582 5.10732861 6.90070869 5.09765625 8.3515625 C5.09443359 9.20234375 5.09121094 10.053125 5.08789062 10.9296875 C5.07951172 11.81914062 5.07113281 12.70859375 5.0625 13.625 C5.05798828 14.5221875 5.05347656 15.419375 5.04882812 16.34375 C5.03702591 18.56256648 5.02056155 20.78125018 5 23 C4.34 23 3.68 23 3 23 C2.67 16.73 2.34 10.46 2 4 C1.01 3.67 0.02 3.34 -1 3 C-0.67 2.01 -0.34 1.02 0 0 Z " fill="#070707" transform="translate(291,203)"/>
<path d="M0 0 C0.99 0.33 1.98 0.66 3 1 C2.17647059 8.24705882 2.17647059 8.24705882 -1 11 C-4.6875 11.25 -4.6875 11.25 -8 11 C-8.33 10.01 -8.66 9.02 -9 8 C-5.535 7.505 -5.535 7.505 -2 7 C-1.34 4.69 -0.68 2.38 0 0 Z " fill="#0A0A0A" transform="translate(239,214)"/>
<path d="M0 0 C7.29613734 0.36480687 7.29613734 0.36480687 10.5625 3.3125 C12 6 12 6 11.75 8.3125 C11.5025 8.869375 11.255 9.42625 11 10 C6.17324411 7.58662205 3.30015998 4.13937592 0 0 Z " fill="#3D3D3D" transform="translate(251,179)"/>
<path d="M0 0 C2 2 2 2 2.1953125 5.6953125 C2.182009 7.17200108 2.15814835 8.64862358 2.125 10.125 C2.11597656 10.87910156 2.10695313 11.63320312 2.09765625 12.41015625 C2.0740687 14.27357254 2.03819719 16.13682593 2 18 C2.99 18 3.98 18 5 18 C5 20.64 5 23.28 5 26 C4.67 26 4.34 26 4 26 C4 24.35 4 22.7 4 21 C2.68 20.67 1.36 20.34 0 20 C0 13.4 0 6.8 0 0 Z " fill="#222222" transform="translate(292,208)"/>
<path d="M0 0 C2.31 0 4.62 0 7 0 C7 0.66 7 1.32 7 2 C7.639375 2.309375 8.27875 2.61875 8.9375 2.9375 C11 4 11 4 12 5 C12.14115161 7.67058851 12.04247107 10.32432238 12 13 C11.731875 12.4225 11.46375 11.845 11.1875 11.25 C9.05235957 6.82295993 9.05235957 6.82295993 5.02734375 4.3046875 C3.03328235 3.80529293 1.01698734 3.3967844 -1 3 C-0.67 2.01 -0.34 1.02 0 0 Z " fill="#121212" transform="translate(252,176)"/>
<path d="M0 0 C2.31 0.33 4.62 0.66 7 1 C7.66 2.65 8.32 4.3 9 6 C9.66 4.68 10.32 3.36 11 2 C11.25523437 2.83144531 11.25523437 2.83144531 11.515625 3.6796875 C12.90825986 8.25122977 12.90825986 8.25122977 16.1875 11.5 C16.785625 11.665 17.38375 11.83 18 12 C17.67 12.99 17.34 13.98 17 15 C16.16855469 14.28972656 15.33710938 13.57945312 14.48046875 12.84765625 C13.38301003 11.91903734 12.28534287 10.99066473 11.1875 10.0625 C10.64029297 9.59392578 10.09308594 9.12535156 9.52929688 8.64257812 C7.02785775 6.53530517 5.13297093 5.04432364 2 4 C0.8125 1.9375 0.8125 1.9375 0 0 Z " fill="#3E3E3E" transform="translate(149,218)"/>
<path d="M0 0 C0.99 1.32 1.98 2.64 3 4 C1.35 4 -0.3 4 -2 4 C-2.33 8.95 -2.66 13.9 -3 19 C-5.95808381 14.56287428 -5.78247597 10.20384505 -5 5 C-3.55405312 2.63711119 -2.2829278 1.65512266 0 0 Z " fill="#232323" transform="translate(164,204)"/>
<path d="M0 0 C0.66 0 1.32 0 2 0 C2.10832169 2.08218362 2.18573541 4.16599129 2.25 6.25 C2.29640625 7.41015625 2.3428125 8.5703125 2.390625 9.765625 C2 13 2 13 0.3125 15.40625 C-2.4720835 17.32535484 -3.90707154 17.4259436 -7.25 17.25 C-8.14203125 17.21390625 -9.0340625 17.1778125 -9.953125 17.140625 C-10.96632812 17.07101563 -10.96632812 17.07101563 -12 17 C-12 16.67 -12 16.34 -12 16 C-11.38511719 15.90203125 -10.77023438 15.8040625 -10.13671875 15.703125 C-9.32847656 15.55359375 -8.52023438 15.4040625 -7.6875 15.25 C-6.88699219 15.11078125 -6.08648437 14.9715625 -5.26171875 14.828125 C-2.35120877 13.76244604 -1.46902639 12.71204872 0 10 C0.36034523 7.41118198 0.36034523 7.41118198 0.1875 4.75 C0.16042969 3.85796875 0.13335937 2.9659375 0.10546875 2.046875 C0.07066406 1.37140625 0.03585938 0.6959375 0 0 Z " fill="#BCBCBC" transform="translate(249,213)"/>
<path d="M0 0 C0.99773437 0.02320313 1.99546875 0.04640625 3.0234375 0.0703125 C4.52777344 0.09738281 4.52777344 0.09738281 6.0625 0.125 C6.83335938 0.14820313 7.60421875 0.17140625 8.3984375 0.1953125 C8.7284375 0.8553125 9.0584375 1.5153125 9.3984375 2.1953125 C8.74617188 2.20949219 8.09390625 2.22367188 7.421875 2.23828125 C1.00762309 2.58832155 -2.10275436 3.57811467 -6.6015625 8.1953125 C-4.20337971 0.31556905 -4.20337971 0.31556905 0 0 Z " fill="#4C4C4C" transform="translate(73.6015625,130.8046875)"/>
<path d="M0 0 C0.66 0.33 1.32 0.66 2 1 C0.76238177 2.65516419 -0.49057455 4.29886798 -1.75 5.9375 C-2.44609375 6.85402344 -3.1421875 7.77054687 -3.859375 8.71484375 C-6.01029035 11.01098513 -6.93617261 11.67567593 -10 12 C-7.87880087 6.98625661 -4.506805 3.00453667 0 0 Z " fill="#464646" transform="translate(181,62)"/>
<path d="M0 0 C0 0.66 0 1.32 0 2 C-1.98 2 -3.96 2 -6 2 C-6.66 3.32 -7.32 4.64 -8 6 C-9.65 4.35 -11.3 2.7 -13 1 C-8.59085217 -0.10228696 -4.51617599 -0.07654536 0 0 Z " fill="#363636" transform="translate(258,173)"/>
<path d="M0 0 C0.144375 1.11375 0.28875 2.2275 0.4375 3.375 C0.78372035 6.82142047 0.78372035 6.82142047 2 9 C-2.2742558 7.4169423 -4.26531794 4.49431596 -7 1 C-4.50935112 0.31292445 -2.62113708 0 0 0 Z " fill="#424242" transform="translate(147,209)"/>
<path d="M0 0 C0.474375 0.66 0.94875 1.32 1.4375 2 C4.92986819 6.08862618 8.93171968 9.49675861 13 13 C9.87099787 13 8.62581138 12.57548683 6 11 C5.67 10.34 5.34 9.68 5 9 C4.01 8.67 3.02 8.34 2 8 C2 6.68 2 5.36 2 4 C1.01 3.67 0.02 3.34 -1 3 C-0.67 2.01 -0.34 1.02 0 0 Z " fill="#AFAFAF" transform="translate(170,107)"/>
<path d="M0 0 C5.0410107 1.44028877 6.90045007 3.97896225 10 8 C10.66 8.66 11.32 9.32 12 10 C11.34 10 10.68 10 10 10 C9.67 11.32 9.34 12.64 9 14 C8.52820313 12.95199219 8.52820313 12.95199219 8.046875 11.8828125 C7.61890625 10.97273437 7.1909375 10.06265625 6.75 9.125 C6.33234375 8.22007812 5.9146875 7.31515625 5.484375 6.3828125 C3.87558308 3.80027811 2.80780672 3.04392814 0 2 C0 1.34 0 0.68 0 0 Z " fill="#545454" transform="translate(174,212)"/>
<path d="M0 0 C3.26915556 4.90373335 4.22450809 7.05053549 4 13 C3.01 13.33 2.02 13.66 1 14 C0.67 9.38 0.34 4.76 0 0 Z " fill="#454545" transform="translate(276,210)"/>
<path d="M0 0 C0.33 1.32 0.66 2.64 1 4 C2.65 3.67 4.3 3.34 6 3 C6.33 4.98 6.66 6.96 7 9 C3.05860922 7.33248852 0.2107188 4.77289351 -3 2 C-2.01 1.34 -1.02 0.68 0 0 Z " fill="#DADADA" transform="translate(184,216)"/>
<path d="M0 0 C5.75 1.875 5.75 1.875 8 3 C8.33 3.99 8.66 4.98 9 6 C9.99 6 10.98 6 12 6 C12.33 7.65 12.66 9.3 13 11 C8.30840284 7.61227103 3.9700218 4.21814817 0 0 Z " fill="#3C3C3C" transform="translate(247,113)"/>
<path d="M0 0 C5.53846154 -0.36923077 5.53846154 -0.36923077 7.875 1.5 C8.24625 1.995 8.6175 2.49 9 3 C8.34 3 7.68 3 7 3 C7.66 4.65 8.32 6.3 9 8 C4.7257442 6.4169423 2.73468206 3.49431596 0 0 Z " fill="#3A3A3A" transform="translate(208,205)"/>
<path d="M0 0 C3.875 1.75 3.875 1.75 5 4 C5.04022391 6.3329866 5.04320247 8.66706666 5 11 C1.19015156 8.22920113 0.93159248 4.37131855 0 0 Z " fill="#242424" transform="translate(275,205)"/>
<path d="M0 0 C3.3125 -0.25 3.3125 -0.25 7 0 C8.9375 2 8.9375 2 10 4 C7.03 3.505 7.03 3.505 4 3 C3.67 3.66 3.34 4.32 3 5 C2.67 4.01 2.34 3.02 2 2 C1.34 2 0.68 2 0 2 C0 1.34 0 0.68 0 0 Z " fill="#2F2F2F" transform="translate(271,199)"/>
<path d="M0 0 C0.33 0 0.66 0 1 0 C2.10643764 5.83394389 2.27137992 8.76579213 -1 14 C-2.32 13.67 -3.64 13.34 -5 13 C-4.360625 12.154375 -3.72125 11.30875 -3.0625 10.4375 C-0.8033727 7.09271435 -0.32208241 4.02603008 0 0 Z " fill="#D9D9D9" transform="translate(188,276)"/>
<path d="M0 0 C2.64 1.98 5.28 3.96 8 6 C4.78548731 7.60725635 1.56387464 7.05748185 -2 7 C-1.01 6.34 -0.02 5.68 1 5 C0.67 3.35 0.34 1.7 0 0 Z " fill="#383838" transform="translate(186,222)"/>
<path d="M0 0 C1.75406653 0.39920135 3.50318982 0.82015666 5.25 1.25 C6.22453125 1.48203125 7.1990625 1.7140625 8.203125 1.953125 C11.31523411 3.11799266 12.84212456 4.51330545 15 7 C9.86626838 5.60961435 4.96260257 3.91539047 0 2 C0 1.34 0 0.68 0 0 Z " fill="#AAAAAA" transform="translate(238,48)"/>
<path d="M0 0 C2.4375 0.8125 2.4375 0.8125 5 2 C5.33 2.99 5.66 3.98 6 5 C6.99 5.33 7.98 5.66 9 6 C6.13822943 7.43088528 4.06624227 6.59991697 1 6 C0.67 4.02 0.34 2.04 0 0 Z " fill="#454545" transform="translate(271,40)"/>
<path d="M0 0 C0.99 0.495 0.99 0.495 2 1 C2 1.99 2 2.98 2 4 C2.99 4.33 3.98 4.66 5 5 C4.67 5.33 4.34 5.66 4 6 C3.76712992 7.68183948 3.58735834 9.3712416 3.4375 11.0625 C3.31181641 12.44115234 3.31181641 12.44115234 3.18359375 13.84765625 C3.12300781 14.55792969 3.06242188 15.26820313 3 16 C2.67 16 2.34 16 2 16 C1.34 10.72 0.68 5.44 0 0 Z " fill="#2A2A2A" transform="translate(172,210)"/>
<path d="M0 0 C2.64 0 5.28 0 8 0 C7.67 0.99 7.34 1.98 7 3 C4.69 3 2.38 3 0 3 C0 2.01 0 1.02 0 0 Z " fill="#0A0A0A" transform="translate(208,202)"/>
<path d="M0 0 C0.66 0 1.32 0 2 0 C2.66 1.98 3.32 3.96 4 6 C2.02 6 0.04 6 -2 6 C-1.33333333 4 -0.66666667 2 0 0 Z " fill="#1A1A1A" transform="translate(184,222)"/>
<path d="M0 0 C4 4.5 4 4.5 4 9 C2.68 8.34 1.36 7.68 0 7 C0 4.69 0 2.38 0 0 Z " fill="#BBBBBB" transform="translate(272,201)"/>
<path d="M0 0 C2.99324263 1.0975223 3.84610901 1.67682892 5.25 4.625 C5.4975 5.40875 5.745 6.1925 6 7 C4.125 6.6875 4.125 6.6875 2 6 C0 3 0 3 0 0 Z " fill="#1C1C1C" transform="translate(141,202)"/>
<path d="M0 0 C1.31611677 0.95336021 2.62778961 1.91285774 3.9375 2.875 C4.66839844 3.40867187 5.39929688 3.94234375 6.15234375 4.4921875 C8 6 8 6 9 8 C8.01 8.33 7.02 8.66 6 9 C5.67 8.01 5.34 7.02 5 6 C4.154375 5.505 3.30875 5.01 2.4375 4.5 C1.633125 4.005 0.82875 3.51 0 3 C0 2.01 0 1.02 0 0 Z " fill="#DADADA" transform="translate(190,254)"/>
<path d="M0 0 C0.99 0.33 1.98 0.66 3 1 C2.01 4.3 1.02 7.6 0 11 C-0.33 11 -0.66 11 -1 11 C-1.02688151 9.35425434 -1.04634123 7.70838587 -1.0625 6.0625 C-1.07410156 5.14597656 -1.08570313 4.22945312 -1.09765625 3.28515625 C-1 1 -1 1 0 0 Z " fill="#121212" transform="translate(176,215)"/>
<path d="M0 0 C1.423125 0.495 1.423125 0.495 2.875 1 C5.77062452 2.10159191 5.77062452 2.10159191 8 2 C8.33 3.98 8.66 5.96 9 8 C7.68388323 7.04663979 6.37221039 6.08714226 5.0625 5.125 C4.33160156 4.59132812 3.60070312 4.05765625 2.84765625 3.5078125 C1 2 1 2 0 0 Z " fill="#3A3A3A" transform="translate(260,124)"/>
<path d="M0 0 C2.875 0.6875 2.875 0.6875 6 2 C7.375 4.625 7.375 4.625 8 7 C4.2047869 5.50902342 2.38957269 3.24299151 0 0 Z " fill="#474747" transform="translate(224,219)"/>
<path d="M0 0 C0.8971875 0.99 0.8971875 0.99 1.8125 2 C3.87501834 4.3373846 3.87501834 4.3373846 7 4 C6.67 5.32 6.34 6.64 6 8 C3.36 6.02 0.72 4.04 -2 2 C-1.34 1.34 -0.68 0.68 0 0 Z " fill="#2F2F2F" transform="translate(190,187)"/>
<path d="M0 0 C2.475 0.495 2.475 0.495 5 1 C5 2.98 5 4.96 5 7 C4.34 7 3.68 7 3 7 C2.690625 6.21625 2.38125 5.4325 2.0625 4.625 C1.07124962 2.07669872 1.07124962 2.07669872 0 0 Z " fill="#232323" transform="translate(239,212)"/>
<path d="M0 0 C3.26460973 1.80412643 4.88929795 2.83394693 7 6 C4.03 5.505 4.03 5.505 1 5 C0.67 3.35 0.34 1.7 0 0 Z " fill="#E0E0E0" transform="translate(137,209)"/>
<path d="M0 0 C2.31 1.65 4.62 3.3 7 5 C6.01 5.495 6.01 5.495 5 6 C4.67 6.99 4.34 7.98 4 9 C3.731875 8.030625 3.46375 7.06125 3.1875 6.0625 C2.795625 5.051875 2.40375 4.04125 2 3 C1.01 2.67 0.02 2.34 -1 2 C-0.67 1.34 -0.34 0.68 0 0 Z " fill="#3C3C3C" transform="translate(165,204)"/>
<path d="M0 0 C1.65 0 3.3 0 5 0 C5 0.66 5 1.32 5 2 C6.98 2 8.96 2 11 2 C11 2.33 11 2.66 11 3 C9.54257537 3.08096803 8.08387193 3.13917774 6.625 3.1875 C5.81289062 3.22230469 5.00078125 3.25710937 4.1640625 3.29296875 C3.44992188 3.19628906 2.73578125 3.09960938 2 3 C1.34 2.01 0.68 1.02 0 0 Z " fill="#424242" transform="translate(232,226)"/>
<path d="M0 0 C1.65 0 3.3 0 5 0 C5.33 1.65 5.66 3.3 6 5 C1.125 2.25 1.125 2.25 0 0 Z " fill="#282828" transform="translate(182,246)"/>
<path d="M0 0 C2.31 1.65 4.62 3.3 7 5 C4.50907189 6.24546405 3.58919267 5.7767578 1 5 C0.67 3.35 0.34 1.7 0 0 Z " fill="#313131" transform="translate(238,204)"/>
<path d="M0 0 C2 1 2 1 3.1875 3.3125 C4.03624754 6.11989571 3.99928333 7.301935 3 10 C3 9.34 3 8.68 3 8 C2.34 8 1.68 8 1 8 C0.67 5.36 0.34 2.72 0 0 Z " fill="#5E5E5E" transform="translate(292,193)"/>
<path d="M0 0 C3.26460973 1.80412643 4.88929795 2.83394693 7 6 C5.35 5.67 3.7 5.34 2 5 C2 4.01 2 3.02 2 2 C1.34 2 0.68 2 0 2 C0 1.34 0 0.68 0 0 Z " fill="#252525" transform="translate(154,132)"/>
<path d="M0 0 C5.75 1.625 5.75 1.625 8 5 C5.36 4.34 2.72 3.68 0 3 C0 2.01 0 1.02 0 0 Z " fill="#959595" transform="translate(256,56)"/>
<path d="M0 0 C3.53600465 1.91135386 5.78972846 3.62642766 8 7 C6.35 6.67 4.7 6.34 3 6 C2.67 5.01 2.34 4.02 2 3 C1.34 2.67 0.68 2.34 0 2 C0 1.34 0 0.68 0 0 Z " fill="#323232" transform="translate(286,52)"/>
</svg>
